<svg width="521" height="100" viewBox="0 0 521 100" fill="none" xmlns="http://www.w3.org/2000/svg">
<path fill-rule="evenodd" clip-rule="evenodd" d="M0 0H52.6012C79.6628 0 93.3774 21.4012 94.7136 44.185C98.8903 29.4567 115.723 24.1966 128.347 24.1966C163.064 24.1966 168.324 44.185 168.324 68.3816H117.827C122.035 86.266 149.387 86.266 162.012 74.6937V93.6301C155.7 99.9423 139.919 99.9423 125.191 99.9423C112.523 99.9423 92.0881 81.0058 92.0881 66.2775C86.69 83.7564 73.3553 97.8382 52.6012 97.8382H0V0ZM44.185 21.0405H28.4046V75.7458H44.185C72.5896 75.7458 72.5896 21.0405 44.185 21.0405ZM143.075 53.6532H117.827C117.827 46.2891 120.983 39.0186 130.451 38.9249C139.919 38.8312 143.075 46.2891 143.075 53.6532Z" fill="#FF6600"/>
<path fill-rule="evenodd" clip-rule="evenodd" d="M187.26 0H215.665L217.769 76.7978L252.486 75.7458V24.1966H277.734V65.2255C277.734 82.0579 300.879 82.0579 300.879 65.2255V24.1966H328.231V49.4451C328.231 36.8208 348.22 23.1445 368.208 24.1966C379.781 24.1966 390.301 27.3526 390.301 29.4567V41.0289C390.301 33.6648 408.185 24.1966 421.862 24.1966C435.538 24.1966 446.058 27.3526 446.058 27.3526V45.237C446.058 45.237 440.798 42.081 431.33 42.081C421.862 42.081 412.676 50.5629 412.393 61.0174C412.103 71.7662 421.862 81.0058 431.33 81.0058C440.798 81.0058 448.162 75.7457 448.162 75.7457C448.162 58.9133 464.995 51.5492 474.463 51.5492C483.931 51.5492 496.555 52.6012 496.555 52.6012C496.555 52.6012 493.399 39.9769 479.723 39.9769C466.047 39.9769 456.578 46.2891 456.578 46.2891V28.4046C456.578 28.4046 468.849 23.1445 483.931 23.1445C511.284 23.1445 519.7 37.8729 520.752 46.2891V97.8382H496.555V89.422C496.555 89.422 494.451 98.8903 475.515 99.9423C456.578 100.994 448.162 83.1099 448.162 83.1099V94.6822C448.162 94.6822 442.902 99.9423 427.122 99.9423C425.297 99.9423 423.544 99.8544 421.862 99.6913C400.261 97.5975 390.301 83.1099 390.301 83.1099V94.6822C390.301 94.6822 385.041 100.246 368.208 99.9423C335.596 99.3543 328.231 74.6937 328.231 74.6937V97.8382H304.035V87.318C304.035 87.318 296.671 98.8903 279.838 99.9423C263.006 100.994 254.59 87.318 254.59 87.318V97.8382H187.26V0ZM372.416 43.133C361.977 42.509 353.48 51.6111 353.48 62.0694C353.48 72.5277 361.975 81.5923 372.416 81.0058C379.19 80.6254 384.396 79.821 387.126 74.0701C384.464 65.796 384.348 56.6519 386.967 48.4769C384.096 43.3886 378.765 43.5124 372.416 43.133ZM494.451 72.512C483.462 100.265 454.43 61.3069 496.555 65.2255C496.484 65.5724 496.411 65.9131 496.336 66.2477C496.09 67.3552 495.852 68.2862 495.568 69.235C495.222 70.418 494.849 71.5086 494.451 72.512Z" fill="white"/>
</svg>
